<svg width="25" height="24" viewBox="0 0 25 24" fill="none" xmlns="http://www.w3.org/2000/svg">
<path d="M20.4019 5.32201C20.5916 5.32359 20.7773 5.37673 20.9388 5.47569C21.1004 5.57465 21.2316 5.71565 21.3183 5.88343C21.405 6.0512 21.4439 6.23937 21.4308 6.42755C21.4177 6.61573 21.353 6.79675 21.2438 6.95102L20.1957 8.43201C20.1313 13.518 18.4203 16.971 15.1099 18.696C13.5324 19.4754 11.7895 19.8661 10.0282 19.835C7.85029 19.8848 5.69815 19.3589 3.79167 18.311C3.66342 18.2253 3.5643 18.103 3.50738 17.9602C3.45045 17.8174 3.4384 17.6608 3.4728 17.511C3.50501 17.359 3.58282 17.2203 3.69596 17.1132C3.80909 17.0061 3.95224 16.9356 4.10651 16.911C5.38725 16.7332 6.64844 16.4366 7.87356 16.025C2.38343 13.5 3.58043 7.82401 4.10349 6.08101C4.15449 5.90797 4.25037 5.7513 4.38151 5.62674C4.51265 5.50218 4.67445 5.4141 4.85065 5.37134C5.02686 5.32859 5.21128 5.33266 5.3854 5.38315C5.55952 5.43365 5.71722 5.52878 5.84267 5.65901C7.44971 7.30524 9.58047 8.3476 11.873 8.60901C11.8323 7.99655 11.9275 7.38269 12.1519 6.81087C12.3763 6.23906 12.7244 5.72327 13.1716 5.30002C13.9462 4.56918 14.9744 4.16341 16.0424 4.16714C17.1103 4.17086 18.1357 4.5838 18.9051 5.32002L20.4019 5.32201ZM4.91927 17.794C6.79223 18.666 11.1819 19.613 14.6432 17.81C17.6156 16.261 19.1455 13.078 19.1908 8.34901C19.1928 8.19264 19.2426 8.04058 19.3336 7.91302L20.421 6.37502L20.3797 6.32202C19.8587 6.31502 19.3447 6.30802 18.8206 6.32202C18.6163 6.31736 18.4207 6.23879 18.2704 6.10101C17.6914 5.5175 16.9052 5.18309 16.0808 5.16962C15.2564 5.15616 14.4596 5.46472 13.8616 6.02901C13.4775 6.39218 13.1904 6.8447 13.0262 7.34575C12.862 7.84681 12.8259 8.38061 12.9211 8.89901C12.9386 8.99559 12.9338 9.09486 12.9069 9.18929C12.8801 9.28372 12.832 9.37084 12.7662 9.44402C12.7032 9.51784 12.6229 9.57514 12.5324 9.61088C12.4419 9.64663 12.3439 9.65972 12.2472 9.64901C9.54455 9.46152 7.00689 8.28808 5.12145 6.35402C4.44751 8.43202 3.5925 13.448 9.01323 15.419C9.12731 15.4597 9.22731 15.532 9.30145 15.6273C9.37559 15.7226 9.42077 15.837 9.43168 15.957C9.44394 16.0752 9.42207 16.1944 9.36863 16.3007C9.31518 16.4069 9.23237 16.4959 9.12991 16.557C7.80529 17.1992 6.38223 17.6172 4.91927 17.794Z" fill="white"/>
</svg>
