<svg width="19" height="18" viewBox="0 0 19 18" fill="none" xmlns="http://www.w3.org/2000/svg">
<path d="M15.1374 15.75C13.5154 15.75 11.9344 15.3905 10.3944 14.6715C8.85391 13.953 7.48968 13.003 6.30172 11.8215C5.11327 10.6405 4.15768 9.28425 3.43495 7.75275C2.71171 6.22175 2.3501 4.65 2.3501 3.0375C2.3501 2.8125 2.42554 2.625 2.57642 2.475C2.72731 2.325 2.91591 2.25 3.14223 2.25H6.19761C6.37364 2.25 6.53081 2.30625 6.66912 2.41875C6.80743 2.53125 6.88916 2.675 6.91431 2.85L7.40468 5.475C7.42983 5.65 7.42681 5.80925 7.39563 5.95275C7.36394 6.09675 7.29152 6.225 7.17835 6.3375L5.36776 8.175C5.89585 9.075 6.55596 9.91875 7.3481 10.7062C8.14023 11.4937 9.0141 12.175 9.96969 12.75L11.7426 10.9875C11.8557 10.875 12.0036 10.7905 12.1862 10.734C12.3682 10.678 12.5473 10.6625 12.7233 10.6875L15.326 11.2125C15.5021 11.25 15.6467 11.3342 15.7598 11.4653C15.873 11.5967 15.9296 11.75 15.9296 11.925V14.9625C15.9296 15.1875 15.8541 15.375 15.7032 15.525C15.5524 15.675 15.3638 15.75 15.1374 15.75Z" fill="white"/>
</svg>
